<svg width="31" height="31" viewBox="0 0 31 31" fill="none" xmlns="http://www.w3.org/2000/svg">
<g clip-path="url(#clip0_61_41440)">
<path d="M25.8857 17.2531C25.0871 17.2533 24.2996 17.4404 23.5864 17.7995C22.8731 18.1586 22.2538 18.6798 21.7781 19.3212C21.3024 19.9626 20.9835 20.7065 20.8469 21.4933C20.7103 22.2801 20.7598 23.0879 20.9914 23.8522C21.2231 24.6164 21.6305 25.3158 22.181 25.8943C22.7314 26.4728 23.4097 26.9144 24.1615 27.1838C24.9133 27.4531 25.7177 27.5427 26.5103 27.4453C27.3029 27.348 28.0617 27.0664 28.726 26.6231C28.833 26.5516 28.9072 26.4404 28.9322 26.3142C28.9573 26.1879 28.9312 26.0569 28.8596 25.9499C28.7881 25.8429 28.6769 25.7687 28.5507 25.7436C28.4244 25.7185 28.2934 25.7446 28.1864 25.8162C27.4179 26.3291 26.5 26.5706 25.5786 26.5022C24.6572 26.4338 23.7851 26.0595 23.1007 25.4388C22.4163 24.8181 21.959 23.9865 21.8013 23.0761C21.6436 22.1657 21.7946 21.2287 22.2303 20.414C22.666 19.5992 23.3615 18.9534 24.2062 18.5791C25.0509 18.2048 25.9965 18.1234 26.8928 18.348C27.789 18.5726 28.5845 19.0901 29.153 19.8185C29.7214 20.5469 30.0302 21.4443 30.0303 22.3683C30.0236 22.8565 29.9358 23.3401 29.7703 23.7994C29.6275 24.1681 29.3392 24.4059 29.0346 24.4059C28.6129 24.4059 28.2698 24.0111 28.2698 23.5257V20.6516C28.2698 20.5385 28.2303 20.4289 28.1581 20.3418C28.0859 20.2548 27.9855 20.1956 27.8743 20.1747C27.7632 20.1538 27.6482 20.1724 27.5493 20.2273C27.4504 20.2822 27.3738 20.3699 27.3327 20.4753C26.9759 20.2021 26.5492 20.0354 26.1017 19.9942C25.6543 19.9531 25.2043 20.0392 24.8037 20.2427C24.4031 20.4462 24.0681 20.7588 23.8375 21.1444C23.6068 21.53 23.4898 21.9729 23.4999 22.4221C23.51 22.8714 23.6469 23.3086 23.8948 23.6834C24.1426 24.0582 24.4914 24.3553 24.9008 24.5405C25.3102 24.7257 25.7635 24.7914 26.2087 24.7301C26.6538 24.6688 27.0726 24.4829 27.4166 24.194C27.6685 24.8852 28.2986 25.3766 29.0346 25.3766C29.7462 25.3766 30.3915 24.8918 30.6787 24.1415L30.6825 24.1311C30.8861 23.5654 30.9937 22.9695 31.0009 22.3683C30.9994 21.0121 30.4599 19.7119 29.501 18.753C28.542 17.794 27.2418 17.2546 25.8857 17.2531ZM25.8857 23.7817C25.6061 23.7817 25.3328 23.6988 25.1004 23.5435C24.8679 23.3882 24.6868 23.1674 24.5798 22.9091C24.4728 22.6508 24.4448 22.3666 24.4994 22.0925C24.5539 21.8183 24.6885 21.5664 24.8862 21.3687C25.0839 21.1711 25.3358 21.0365 25.6099 20.9819C25.8841 20.9274 26.1683 20.9554 26.4266 21.0624C26.6849 21.1694 26.9056 21.3505 27.0609 21.583C27.2163 21.8154 27.2991 22.0887 27.2991 22.3683C27.2987 22.743 27.1497 23.1023 26.8847 23.3673C26.6197 23.6323 26.2604 23.7813 25.8857 23.7817Z" fill="#112277"/>
<path d="M19.3958 13.8336C19.2995 13.919 19.241 14.0391 19.2333 14.1676C19.2256 14.2961 19.2692 14.4224 19.3545 14.5187L21.7052 17.1711C21.7906 17.2674 21.9107 17.3259 22.0392 17.3337C22.1677 17.3415 22.294 17.2979 22.3903 17.2125C22.4867 17.1271 22.5452 17.007 22.553 16.8785C22.5607 16.75 22.5171 16.6237 22.4318 16.5274L20.0811 13.875C20.0388 13.8273 19.9876 13.7883 19.9302 13.7604C19.8729 13.7325 19.8107 13.7162 19.747 13.7124C19.6834 13.7085 19.6196 13.7173 19.5594 13.7381C19.4991 13.7589 19.4435 13.7913 19.3958 13.8336Z" fill="#112277"/>
<path d="M19.2124 21.9219H1.91552L8.47656 14.5187C8.56193 14.4223 8.60552 14.296 8.59775 14.1675C8.58999 14.0391 8.5315 13.9189 8.43515 13.8335C8.3388 13.7482 8.21249 13.7046 8.084 13.7124C7.95551 13.7201 7.83536 13.7786 7.75 13.875L1.15517 21.3165C1.10084 21.3776 1.06295 21.4516 1.04504 21.5314C0.99621 21.4343 0.970729 21.3272 0.970627 21.2185V7.10818L11.5874 14.424C12.2733 14.8928 13.0847 15.1436 13.9154 15.1436C14.7462 15.1436 15.5576 14.8928 16.2435 14.424L26.8603 7.10818V15.8754C26.8596 15.9396 26.8717 16.0033 26.8957 16.0628C26.9198 16.1223 26.9554 16.1764 27.0006 16.2221C27.0457 16.2677 27.0994 16.3039 27.1587 16.3287C27.2179 16.3534 27.2815 16.3661 27.3457 16.3661C27.4099 16.3661 27.4734 16.3534 27.5326 16.3287C27.5919 16.3039 27.6456 16.2677 27.6908 16.2221C27.7359 16.1764 27.7715 16.1223 27.7956 16.0628C27.8197 16.0033 27.8317 15.9396 27.831 15.8754V5.19054C27.8305 4.7467 27.6539 4.32118 27.3401 4.00735C27.0262 3.69351 26.6007 3.51698 26.1569 3.51648H1.67412C1.23028 3.51698 0.804758 3.69351 0.490909 4.00735C0.17706 4.32118 0.000512815 4.7467 0 5.19054L0 21.2185C0.000464746 21.6624 0.17699 22.0879 0.490845 22.4018C0.804699 22.7157 1.23025 22.8923 1.67412 22.8927H19.2124C19.2766 22.8935 19.3403 22.8814 19.3998 22.8574C19.4593 22.8333 19.5134 22.7977 19.5591 22.7525C19.6047 22.7074 19.6409 22.6537 19.6657 22.5944C19.6904 22.5352 19.7031 22.4716 19.7031 22.4074C19.7031 22.3432 19.6904 22.2797 19.6657 22.2205C19.6409 22.1612 19.6047 22.1075 19.5591 22.0623C19.5134 22.0172 19.4593 21.9816 19.3998 21.9575C19.3403 21.9334 19.2766 21.9214 19.2124 21.9221V21.9219ZM1.67412 4.48711H26.1569C26.3434 4.48731 26.5222 4.56149 26.654 4.69336C26.7859 4.82524 26.8601 5.00404 26.8603 5.19054V5.92921L15.6928 13.6247C15.1692 13.9826 14.5497 14.1741 13.9155 14.1741C13.2812 14.1741 12.6618 13.9826 12.1381 13.6247L0.970627 5.92945V5.19078C0.970787 5.00424 1.04495 4.82537 1.17684 4.69345C1.30873 4.56152 1.48758 4.48731 1.67412 4.48711Z" fill="#112277"/>
</g>
<defs>
<clipPath id="clip0_61_41440">
<rect width="31" height="31" fill="white"/>
</clipPath>
</defs>
</svg>
