<svg width="28" height="28" viewBox="0 0 28 28" fill="none" xmlns="http://www.w3.org/2000/svg">
<g clip-path="url(#clip0_61_41448)">
<path d="M27.1908 21.1232L22.9182 17.3069C22.034 16.5172 20.7195 16.4802 19.7924 17.2189C19.3324 17.5854 18.7525 18.0485 18.0539 18.6082C17.5263 19.0308 16.8176 19.0681 16.2485 18.703C14.6756 17.6938 13.4017 16.6939 12.3541 15.6463C11.3064 14.5986 10.3066 13.3247 9.2975 11.7519C8.93235 11.1828 8.9696 10.4742 9.39238 9.94644C9.952 9.24786 10.415 8.6679 10.7816 8.20798C11.5202 7.28092 11.4832 5.96635 10.6937 5.08227L6.87726 0.80949C6.41679 0.293843 5.80801 0.014117 5.11681 0.000554561C4.42617 -0.0143751 3.80629 0.242546 3.3258 0.739491L1.21421 2.92392C-0.389605 4.58303 -0.404863 7.27091 1.17002 10.6968C2.51665 13.626 4.94548 16.9266 8.00923 19.9904C11.073 23.0543 14.3737 25.4833 17.3031 26.8301C19.0002 27.6104 20.5161 28.0003 21.8158 28.0003C23.1397 28.0003 24.2391 27.5955 25.0765 26.7862L27.2608 24.6746C27.7579 24.1941 28.0134 23.5749 27.9998 22.8837C27.9863 22.1925 27.7065 21.5837 27.1908 21.1232ZM26.6528 24.0455L24.4683 26.157C22.7275 27.8397 19.8097 27.0195 17.6686 26.0351C14.831 24.7306 11.6203 22.3641 8.62796 19.3716C5.63569 16.3794 3.26947 13.1687 1.96507 10.3313C0.980807 8.19032 0.160769 5.27275 1.84334 3.5321L3.95493 1.34772C4.26637 1.02545 4.65126 0.868225 5.09953 0.875389C5.54759 0.884193 5.92608 1.05815 6.22462 1.3924L10.041 5.66518C10.5456 6.23016 10.5693 7.07027 10.0972 7.66275C9.73112 8.12223 9.26852 8.70154 8.7095 9.3994C8.048 10.2251 7.98971 11.334 8.56103 12.2244C9.60441 13.8507 10.6428 15.1724 11.7354 16.2651C12.828 17.3576 14.1496 18.3959 15.776 19.4395C16.6665 20.0107 17.7754 19.9525 18.601 19.291C19.2989 18.7319 19.8782 18.2693 20.3377 17.9032C20.9301 17.4312 21.7703 17.4547 22.3353 17.9595L26.608 21.7758C26.9422 22.0743 27.1162 22.4528 27.125 22.9009C27.1339 23.349 26.975 23.734 26.6528 24.0455ZM4.05293 10.1176C4.16246 10.3329 4.07671 10.5963 3.86136 10.7058C3.79781 10.7382 3.73005 10.7535 3.66333 10.7535C3.50392 10.7535 3.35025 10.6661 3.27303 10.5143C2.5342 9.06198 1.42257 6.38591 2.27837 4.78012C2.37222 4.60403 2.49138 4.44079 2.63248 4.29483C2.80042 4.12114 3.07736 4.11638 3.2511 4.28444C3.42484 4.45233 3.42949 4.72937 3.26154 4.90306C3.17585 4.99165 3.10683 5.0861 3.05056 5.1917C2.33678 6.53099 3.6373 9.30058 4.05293 10.1176Z" fill="#112277"/>
</g>
<defs>
<clipPath id="clip0_61_41448">
<rect width="28" height="28" fill="white"/>
</clipPath>
</defs>
</svg>
