<svg width="28" height="28" viewBox="0 0 28 28" fill="none" xmlns="http://www.w3.org/2000/svg">
<path fill-rule="evenodd" clip-rule="evenodd" d="M13.2132 0.266167C10.985 0.266167 9.17203 2.07918 9.17203 4.3073V5.56341C9.17182 5.90024 9.44493 6.17335 9.78177 6.17315C10.1186 6.17335 10.3917 5.90024 10.3915 5.56341V4.3073C10.3915 2.73328 11.6391 1.48565 13.2132 1.48565H14.7879C16.3619 1.48565 17.6095 2.73328 17.6095 4.3073V5.56341C17.6093 5.90024 17.8824 6.17335 18.2193 6.17315C18.5561 6.17335 18.8292 5.90024 18.829 5.56341V4.3073C18.829 2.07918 17.016 0.266167 14.7879 0.266167H13.2132ZM3.60196 6.82684C3.02162 6.82684 2.65416 6.89573 2.39712 7.15276C2.09077 7.52649 2.09828 7.9992 2.04556 8.39788C1.57011 13.4583 1.05691 18.6511 0.599027 23.6378C0.42622 24.997 0.571159 26.0936 1.30398 26.8146C2.03664 27.5357 3.14229 27.7338 4.59805 27.7338H23.3609C24.8359 27.7338 25.9511 27.5385 26.6897 26.8146C27.4268 26.0922 27.574 24.9878 27.402 23.6231L25.9408 8.28069C25.8812 7.64668 25.8601 7.41083 25.5471 7.09783C25.1667 6.80727 24.7094 6.84652 24.3148 6.82684H3.60196ZM3.60196 8.04632H24.3148C24.7148 8.04632 24.7012 8.04365 24.7305 8.39788L26.1898 23.7476C26.2975 24.6491 26.2836 25.4959 25.8383 25.9412C25.4831 26.2894 24.7111 26.5162 23.359 26.5162H4.59805C3.26708 26.5162 2.51429 26.2872 2.16275 25.9412C1.81122 25.5952 1.64987 24.9866 1.80203 23.7897C2.29772 18.7033 2.77801 13.6073 3.26321 8.5169C3.31243 8.0503 3.30917 8.04632 3.60196 8.04632ZM9.78177 9.64483C9.44551 9.64503 9.17223 9.91648 9.17203 10.2527V12.4463C9.17203 14.6745 10.9869 16.482 13.215 16.482H14.786C17.0142 16.482 18.8272 14.6745 18.8272 12.4463V10.2527C18.827 9.91648 18.5537 9.64503 18.2174 9.64483C17.8812 9.64503 17.6097 9.91648 17.6095 10.2527V12.4463C17.6095 14.0204 16.3601 15.2643 14.786 15.2643H13.215C11.641 15.2643 10.3915 14.0204 10.3915 12.4463V10.2527C10.3913 9.91648 10.118 9.64503 9.78177 9.64483Z" fill="#333333"/>
</svg>
