<svg width="20" height="21" viewBox="0 0 20 21" fill="none" xmlns="http://www.w3.org/2000/svg">
<path fill-rule="evenodd" clip-rule="evenodd" d="M16.0938 0.890259H3.90625C1.74883 0.890259 0 2.63909 0 4.79651V16.984C0 19.1414 1.74883 20.8903 3.90625 20.8903H16.0938C18.2512 20.8903 20 19.1414 20 16.984V4.79651C20 2.63909 18.2512 0.890259 16.0938 0.890259ZM19.0234 16.984C19.0234 18.5996 17.7094 19.9137 16.0938 19.9137H3.90625C2.29063 19.9137 0.976562 18.5996 0.976562 16.984V4.79651C0.976562 3.18088 2.29063 1.86682 3.90625 1.86682H16.0938C17.7094 1.86682 19.0234 3.18088 19.0234 4.79651V16.984Z" fill="#112277"/>
<path d="M9.85859 9.75044C9.85859 10.9231 8.91875 11.8629 7.46641 11.8629H6.38633V13.4926C6.38633 13.8739 6.0793 14.1997 5.69727 14.1997C5.31523 14.1997 4.99023 13.8739 4.99023 13.4926V8.38169C4.99023 7.93521 5.31602 7.60942 5.7625 7.60942H7.46641C8.91875 7.60942 9.85859 8.57739 9.85859 9.75044ZM8.49961 9.75044C8.49961 9.02427 8.00625 8.80083 7.39141 8.80083H6.38633V10.6715H7.39141C8.00625 10.6715 8.49961 10.4766 8.49961 9.75044ZM14.3949 12.8868C14.7301 12.8868 15.0098 13.1575 15.0098 13.5106C15.0098 13.8637 14.7301 14.1254 14.3949 14.1254H11.5184C11.0719 14.1254 10.7461 13.7997 10.7461 13.3524V8.29849C10.7461 7.8981 11.0531 7.5813 11.4531 7.5813C11.8531 7.5813 12.1422 7.8981 12.1422 8.29849V12.8872H14.3949V12.8868Z" fill="#112277"/>
</svg>
