<svg width="104" height="21" viewBox="0 0 104 21" fill="none" xmlns="http://www.w3.org/2000/svg">
<path d="M10.3445 15.4012L14.2852 17.8974C14.7889 18.2162 15.4139 17.7418 15.2645 17.1537L14.1264 12.6756C14.0943 12.5508 14.098 12.4195 14.1371 12.2968C14.1763 12.1741 14.2492 12.0649 14.3477 11.9818L17.8814 9.04118C18.3452 8.65493 18.1064 7.88431 17.5095 7.84556L12.8952 7.54556C12.7709 7.53675 12.6517 7.49283 12.5515 7.41891C12.4513 7.345 12.3741 7.24414 12.3289 7.12806L10.6077 2.79431C10.5608 2.67115 10.4776 2.56514 10.3691 2.49034C10.2606 2.41554 10.1319 2.37549 10.0002 2.37549C9.86838 2.37549 9.73972 2.41554 9.63122 2.49034C9.52273 2.56514 9.43953 2.67115 9.39266 2.79431L7.67141 7.12806C7.62636 7.24425 7.54921 7.34525 7.44895 7.41928C7.3487 7.49331 7.22947 7.53732 7.10516 7.54618L2.49079 7.84618C1.89454 7.88431 1.65454 8.65493 2.11891 9.04118L5.65266 11.9824C5.75098 12.0655 5.82389 12.1746 5.86303 12.2972C5.90216 12.4198 5.90594 12.5509 5.87391 12.6756L4.81891 16.8287C4.63954 17.5343 5.39016 18.1037 5.99391 17.7206L9.65641 15.4012C9.75935 15.3357 9.87881 15.301 10.0008 15.301C10.1228 15.301 10.2422 15.3357 10.3452 15.4012H10.3445Z" fill="#112277"/>
<path d="M31.3445 15.4012L35.2852 17.8974C35.7889 18.2162 36.4139 17.7418 36.2645 17.1537L35.1264 12.6756C35.0943 12.5508 35.098 12.4195 35.1371 12.2968C35.1763 12.1741 35.2492 12.0649 35.3477 11.9818L38.8814 9.04118C39.3452 8.65493 39.1064 7.88431 38.5095 7.84556L33.8952 7.54556C33.7709 7.53675 33.6517 7.49283 33.5515 7.41891C33.4513 7.345 33.3741 7.24414 33.3289 7.12806L31.6077 2.79431C31.5608 2.67115 31.4776 2.56514 31.3691 2.49034C31.2606 2.41554 31.1319 2.37549 31.0002 2.37549C30.8684 2.37549 30.7397 2.41554 30.6312 2.49034C30.5227 2.56514 30.4395 2.67115 30.3927 2.79431L28.6714 7.12806C28.6264 7.24425 28.5492 7.34525 28.449 7.41928C28.3487 7.49331 28.2295 7.53732 28.1052 7.54618L23.4908 7.84618C22.8945 7.88431 22.6545 8.65493 23.1189 9.04118L26.6527 11.9824C26.751 12.0655 26.8239 12.1746 26.863 12.2972C26.9022 12.4198 26.9059 12.5509 26.8739 12.6756L25.8189 16.8287C25.6395 17.5343 26.3902 18.1037 26.9939 17.7206L30.6564 15.4012C30.7594 15.3357 30.8788 15.301 31.0008 15.301C31.1228 15.301 31.2422 15.3357 31.3452 15.4012H31.3445Z" fill="#112277"/>
<path d="M52.3445 15.4012L56.2852 17.8974C56.7889 18.2162 57.4139 17.7418 57.2645 17.1537L56.1264 12.6756C56.0943 12.5508 56.098 12.4195 56.1371 12.2968C56.1763 12.1741 56.2492 12.0649 56.3477 11.9818L59.8814 9.04118C60.3452 8.65493 60.1064 7.88431 59.5095 7.84556L54.8952 7.54556C54.7709 7.53675 54.6517 7.49283 54.5515 7.41891C54.4513 7.345 54.3741 7.24414 54.3289 7.12806L52.6077 2.79431C52.5608 2.67115 52.4776 2.56514 52.3691 2.49034C52.2606 2.41554 52.1319 2.37549 52.0002 2.37549C51.8684 2.37549 51.7397 2.41554 51.6312 2.49034C51.5227 2.56514 51.4395 2.67115 51.3927 2.79431L49.6714 7.12806C49.6264 7.24425 49.5492 7.34525 49.449 7.41928C49.3487 7.49331 49.2295 7.53732 49.1052 7.54618L44.4908 7.84618C43.8945 7.88431 43.6545 8.65493 44.1189 9.04118L47.6527 11.9824C47.751 12.0655 47.8239 12.1746 47.863 12.2972C47.9022 12.4198 47.9059 12.5509 47.8739 12.6756L46.8189 16.8287C46.6395 17.5343 47.3902 18.1037 47.9939 17.7206L51.6564 15.4012C51.7594 15.3357 51.8788 15.301 52.0008 15.301C52.1228 15.301 52.2422 15.3357 52.3452 15.4012H52.3445Z" fill="#112277"/>
<path d="M73.3445 15.4012L77.2852 17.8974C77.7889 18.2162 78.4139 17.7418 78.2645 17.1537L77.1264 12.6756C77.0943 12.5508 77.098 12.4195 77.1371 12.2968C77.1763 12.1741 77.2492 12.0649 77.3477 11.9818L80.8814 9.04118C81.3452 8.65493 81.1064 7.88431 80.5095 7.84556L75.8952 7.54556C75.7709 7.53675 75.6517 7.49283 75.5515 7.41891C75.4513 7.345 75.3741 7.24414 75.3289 7.12806L73.6077 2.79431C73.5608 2.67115 73.4776 2.56514 73.3691 2.49034C73.2606 2.41554 73.1319 2.37549 73.0002 2.37549C72.8684 2.37549 72.7397 2.41554 72.6312 2.49034C72.5227 2.56514 72.4395 2.67115 72.3927 2.79431L70.6714 7.12806C70.6264 7.24425 70.5492 7.34525 70.449 7.41928C70.3487 7.49331 70.2295 7.53732 70.1052 7.54618L65.4908 7.84618C64.8945 7.88431 64.6545 8.65493 65.1189 9.04118L68.6527 11.9824C68.751 12.0655 68.8239 12.1746 68.863 12.2972C68.9022 12.4198 68.9059 12.5509 68.8739 12.6756L67.8189 16.8287C67.6395 17.5343 68.3902 18.1037 68.9939 17.7206L72.6564 15.4012C72.7594 15.3357 72.8788 15.301 73.0008 15.301C73.1228 15.301 73.2422 15.3357 73.3452 15.4012H73.3445Z" fill="#112277"/>
<path d="M94.3445 15.4012L98.2852 17.8974C98.7889 18.2162 99.4139 17.7418 99.2645 17.1537L98.1264 12.6756C98.0943 12.5508 98.098 12.4195 98.1371 12.2968C98.1763 12.1741 98.2492 12.0649 98.3477 11.9818L101.881 9.04118C102.345 8.65493 102.106 7.88431 101.51 7.84556L96.8952 7.54556C96.7709 7.53675 96.6517 7.49283 96.5515 7.41891C96.4513 7.345 96.3741 7.24414 96.3289 7.12806L94.6077 2.79431C94.5608 2.67115 94.4776 2.56514 94.3691 2.49034C94.2606 2.41554 94.1319 2.37549 94.0002 2.37549C93.8684 2.37549 93.7397 2.41554 93.6312 2.49034C93.5227 2.56514 93.4395 2.67115 93.3927 2.79431L91.6714 7.12806C91.6264 7.24425 91.5492 7.34525 91.449 7.41928C91.3487 7.49331 91.2295 7.53732 91.1052 7.54618L86.4908 7.84618C85.8945 7.88431 85.6545 8.65493 86.1189 9.04118L89.6527 11.9824C89.751 12.0655 89.8239 12.1746 89.863 12.2972C89.9022 12.4198 89.9059 12.5509 89.8739 12.6756L88.8189 16.8287C88.6395 17.5343 89.3902 18.1037 89.9939 17.7206L93.6564 15.4012C93.7594 15.3357 93.8788 15.301 94.0008 15.301C94.1228 15.301 94.2422 15.3357 94.3452 15.4012H94.3445Z" fill="#112277"/>
</svg>
