<svg width="24" height="18" viewBox="0 0 24 18" fill="none" xmlns="http://www.w3.org/2000/svg">
<path d="M23.9496 12.1958L21.9496 8.59581C21.8792 8.46901 21.7452 8.39021 21.6 8.39021H16.8C16.5792 8.39021 16.4 8.56942 16.4 8.7902V14.7902H15.6C15.6 11.7698 15.6 6.3902 15.6 6.3902C15.6 5.50778 14.8824 4.79021 14 4.79021H8.79998C8.79998 2.3642 6.82598 0.390198 4.39997 0.390198C1.974 0.390245 0 2.36424 0 4.79021C0 5.4406 0.145594 6.05663 0.399984 6.61262V14.3902C0.179203 14.3902 0 14.5694 0 14.7902V16.7902C0 16.8966 0.042 16.9982 0.117188 17.0734C0.235172 17.1906 0.234797 17.1902 1.806 17.189C1.97522 17.189 2.12602 17.0818 2.18241 16.9222C2.63363 15.647 3.84642 14.7902 5.19998 14.7902C6.55439 14.7902 7.76677 15.6474 8.21798 16.9234C8.27437 17.0834 8.42559 17.1902 8.59519 17.1902H15.2C15.4207 17.1902 15.6 17.011 15.6 16.7902C15.6 16.7898 15.6 16.789 15.6 16.7882C15.6 16.7634 15.6 16.301 15.6 15.5902H16.5372C16.6288 15.5902 16.7176 15.5586 16.7887 15.501C17.3635 15.0358 18.0587 14.7902 18.8 14.7902C20.1544 14.7902 21.3668 15.6474 21.818 16.9234C21.8744 17.0834 22.0256 17.1902 22.1952 17.1902H23.6C23.8207 17.1902 24 17.011 24 16.7902V12.3902C24 12.3222 23.9828 12.2554 23.9496 12.1958ZM4.40002 1.19021C6.3848 1.19021 8.00002 2.80543 8.00002 4.79021C8.00002 6.77499 6.3848 8.39021 4.40002 8.39021C2.41523 8.39021 0.800016 6.77499 0.800016 4.79021C0.800016 2.80543 2.41519 1.19021 4.40002 1.19021ZM8.8672 16.3902C8.23561 14.9434 6.79641 13.9902 5.19998 13.9902C3.60398 13.9902 2.1652 14.943 1.53319 16.3894C1.3252 16.3894 1.03439 16.3898 0.799969 16.3902V15.1902C1.02075 15.1902 1.19995 15.011 1.19995 14.7902V13.5902H1.59994C1.82072 13.5902 1.99992 13.411 1.99992 13.1903C1.99992 12.9695 1.82072 12.7903 1.59994 12.7903H1.2V7.80062C2.0032 8.65384 3.1388 9.19023 4.40002 9.19023C6.5528 9.19023 8.346 7.63501 8.72363 5.59023H14C14.4412 5.59023 14.8 5.94901 14.8 6.39024V15.1654C14.8 15.1742 14.8 15.1814 14.8 15.1902C14.8 15.7158 14.8005 16.1046 14.8076 16.3902H8.8672ZM18.8 9.19023H21.3648L22.9204 11.9902H18.8V9.19023ZM23.2 13.5902H22.8C22.5792 13.5902 22.4 13.7694 22.4 13.9902C22.4 14.211 22.5792 14.3902 22.8 14.3902H23.2V16.3902H22.4672C21.8356 14.9434 20.3964 13.9902 18.8 13.9902C18.2472 13.9902 17.7015 14.1062 17.2 14.3246V9.19023H18V12.3902C18 12.611 18.1792 12.7902 18.4 12.7902H23.2V13.5902Z" fill="#112277"/>
</svg>
