<svg width="40" height="40" viewBox="0 0 40 40" fill="none" xmlns="http://www.w3.org/2000/svg">
<circle cx="20" cy="20" r="20" fill="white" fill-opacity="0.16"/>
<path d="M19.9988 20.4766C23.9911 20.4766 27.4005 22.9576 28.7771 26.46L28.9041 26.8027L28.9519 26.9541C29.3888 28.5197 28.2248 30.0996 26.5691 30.0996H13.4324C11.7239 30.0996 10.5341 28.4161 11.0974 26.8018C12.3777 23.12 15.8778 20.4766 19.9988 20.4766ZM19.9988 21.623C16.4758 21.6231 13.3377 23.8549 12.1785 27.1777C12.131 27.3212 12.1052 27.469 12.1052 27.6182C12.1052 28.3559 12.6972 28.9541 13.4324 28.9541H26.5652C26.7183 28.9541 26.8656 28.9295 27.0046 28.8799C27.6981 28.6341 28.0641 27.8741 27.8191 27.1826V27.1816C26.6598 23.8549 23.5217 21.623 19.9988 21.623Z" fill="#333333" stroke="#333333" stroke-width="0.4"/>
<path d="M19.9988 9.8998C22.4913 9.8998 24.5152 11.9229 24.5154 14.4154C24.5154 16.9081 22.4914 18.932 19.9988 18.932C17.5063 18.9318 15.4832 16.908 15.4832 14.4154C15.4833 11.9231 17.5064 9.89999 19.9988 9.8998ZM19.9988 11.0463C18.1407 11.0503 16.6333 12.5547 16.6296 14.4164C16.63 16.2778 18.1373 17.7854 19.9988 17.7855C21.8606 17.7855 23.3689 16.2772 23.3689 14.4154C23.3687 12.5538 21.8605 11.0463 19.9988 11.0463Z" fill="#333333" stroke="#333333" stroke-width="0.4"/>
</svg>
