<?xml version="1.0" encoding="UTF-8"?> <svg xmlns="http://www.w3.org/2000/svg" width="43" height="43" viewBox="0 0 43 43" fill="none"><path d="M42.8727 18.8642C42.766 19.0824 42.4994 19.1916 42.2861 19.2461C41.0597 19.2461 30.5016 19.6826 30.5016 32.2323C30.5016 32.6143 30.1816 32.9417 29.8084 32.9417C29.4351 32.9417 29.1152 32.6143 29.1152 32.2323C29.1152 19.6826 18.5571 19.2461 17.3839 19.2461C17.224 19.2461 17.064 19.1916 16.9573 19.0824C16.8507 19.0279 16.7974 18.9187 16.744 18.8642C16.6374 18.6459 16.6374 18.3731 16.744 18.1549C16.8507 17.9366 17.1173 17.7729 17.3839 17.7729C17.3839 17.7729 17.3839 17.7729 17.4373 17.7729C18.6637 17.7729 29.1685 17.3364 29.1685 4.78672C29.1685 4.40477 29.4884 4.07738 29.8617 4.07738C30.235 4.07738 30.5549 4.40477 30.5549 4.78672C30.5549 17.2818 41.0597 17.7729 42.2861 17.7729C42.5527 17.7729 42.766 17.9366 42.926 18.1549C43.0327 18.3731 43.0327 18.6459 42.8727 18.8642ZM29.8084 10.134C28.262 15.3175 24.476 17.5547 21.4899 18.5368C24.476 19.5189 28.262 21.7561 29.8084 26.9396C31.3548 21.7561 35.1407 19.5189 38.1269 18.5368C35.1407 17.5547 31.3548 15.3175 29.8084 10.134Z" fill="black"></path><path d="M21.0101 33.0508C21.3834 33.0508 21.7033 33.3782 21.7033 33.8147C21.7033 34.1966 21.3834 34.524 21.0101 34.524C20.3703 34.524 14.6113 34.7423 14.6113 41.6173C14.6113 41.9993 14.2913 42.3267 13.9181 42.3267C13.5448 42.3267 13.2249 41.9993 13.2249 41.6173C13.2249 34.7423 7.46591 34.524 6.82602 34.524C6.7727 34.524 6.7727 34.524 6.7727 34.524C6.39943 34.4695 6.13281 34.1966 6.13281 33.8147C6.13281 33.4328 6.45276 33.1054 6.82602 33.1054C7.51923 33.1054 13.2249 32.8871 13.2249 26.0121C13.2249 25.6301 13.5448 25.3027 13.9181 25.3027C14.238 25.2482 14.558 25.5756 14.558 25.9575C14.558 32.8326 20.3169 33.0508 20.9568 33.0508H21.0101ZM13.8648 29.9407C13.0116 32.0141 11.4652 33.1599 10.0254 33.8147C11.5718 34.4695 13.0116 35.7244 13.8648 37.6887C14.7179 35.6153 16.2643 34.4695 17.7041 33.8147C16.1577 33.1599 14.7179 31.905 13.8648 29.9407Z" fill="black"></path><path d="M14.8773 9.91564C14.2374 9.91564 8.47847 10.1339 8.47847 17.0089C8.47847 17.3909 8.15853 17.7183 7.78527 17.7183C7.412 17.7183 7.09206 17.3909 7.09206 17.0089C7.09206 10.1339 1.33309 9.91564 0.693209 9.91564C0.639885 9.91564 0.639885 9.91564 0.639885 9.91564C0.266619 9.86107 0 9.58825 0 9.20631C0 8.82436 0.319942 8.49697 0.693209 8.49697C1.38642 8.49697 7.09206 8.27872 7.09206 1.40368C7.09206 1.02173 7.412 0.694349 7.78527 0.694349C8.10521 0.585222 8.42515 0.912603 8.42515 1.34911C8.42515 8.22416 14.1841 8.44241 14.824 8.44241H14.8773C15.2506 8.44241 15.5705 8.7698 15.5705 9.20631C15.5705 9.58825 15.2506 9.91564 14.8773 9.91564ZM7.73194 5.27771C6.82544 7.35114 5.33237 8.49698 3.89263 9.15174C5.43902 9.80651 6.87876 11.0615 7.73194 13.0258C8.58512 10.9523 10.1315 9.80651 11.5713 9.15174C10.0249 8.49698 8.58512 7.24201 7.73194 5.27771Z" fill="black"></path></svg> 