<?xml version="1.0" encoding="UTF-8"?> <svg xmlns="http://www.w3.org/2000/svg" width="16" height="17" viewBox="0 0 16 17" fill="none"><g clip-path="url(#clip0_2212_8211)"><path d="M15.75 9.03125C15.75 8.38843 15.5461 7.76294 15.1731 7.25366C15.28 6.95703 15.3359 6.63184 15.3359 6.30469C15.3359 5.25781 14.7915 4.37329 14.0208 4.13013C13.9504 3.89917 13.855 3.67847 13.7358 3.47217C13.0989 2.36889 11.8916 1.7749 10.6914 1.9602C10.0947 1.19946 9.12597 0.75 8.0664 0.75C7.14599 0.75 6.27856 1.09424 5.67187 1.69727C4.83032 1.84057 4.12329 2.29736 3.74097 2.94141C2.37646 3.01514 1.28906 4.14868 1.28906 5.53125C1.28906 5.58276 1.29102 5.63574 1.29468 5.69092C0.638183 6.2439 0.25 7.08472 0.25 7.96875C0.25 8.61157 0.453858 9.23706 0.826905 9.74634C0.719973 10.043 0.664062 10.3682 0.664062 10.6953C0.664062 11.7419 1.20849 12.6265 1.97925 12.8699C2.04907 13.1003 2.14478 13.321 2.26416 13.5278C2.90112 14.6311 4.10937 15.2256 5.30859 15.0398C5.90527 15.8005 6.87402 16.25 7.93359 16.25C8.854 16.25 9.72143 15.9058 10.3281 15.3027C11.1697 15.1594 11.8767 14.7026 12.259 14.0586C13.6235 13.9849 14.7109 12.8513 14.7109 11.4688C14.7109 11.4172 14.709 11.3643 14.7053 11.3091C15.3618 10.7561 15.75 9.91528 15.75 9.03125ZM14.293 10.999C14.2227 11.0522 14.1855 11.1389 14.1958 11.2266C14.2048 11.3064 14.2109 11.3867 14.2109 11.4688C14.2109 12.6233 13.2717 13.5625 12.137 13.5635C12.0342 13.5535 11.9324 13.6084 11.8862 13.6995C11.5925 14.2817 10.9355 14.7117 10.1719 14.821C10.116 14.8291 10.0647 14.8557 10.0259 14.8965C9.51123 15.439 8.74853 15.75 7.93359 15.75C6.97803 15.75 6.11377 15.3289 5.62183 14.623C5.57446 14.5552 5.49731 14.5161 5.41675 14.5161C5.39966 14.5161 5.38208 14.5178 5.36499 14.5215C4.32617 14.7422 3.25391 14.2422 2.69727 13.2778C2.57593 13.0679 2.48389 12.8408 2.42383 12.6025C2.40015 12.5088 2.32446 12.4373 2.22974 12.4185C1.62207 12.2988 1.16406 11.5581 1.16406 10.6953C1.16406 10.3833 1.22534 10.0752 1.34131 9.8042C1.37768 9.71875 1.36377 9.62012 1.30517 9.5481C0.947262 9.10816 0.749997 8.54737 0.749997 7.96875C0.749997 7.1919 1.10791 6.4563 1.70703 6.00098C1.77734 5.94776 1.81445 5.86109 1.8042 5.77344C1.79517 5.69361 1.78906 5.61328 1.78906 5.53125C1.78906 4.37671 2.72827 3.43751 3.86304 3.43653C3.96558 3.44556 4.06763 3.39185 4.11377 3.30054C4.40747 2.71827 5.06445 2.28833 5.82812 2.17896C5.88403 2.1709 5.9353 2.14429 5.97412 2.10352C6.48877 1.56104 7.25146 1.25 8.0664 1.25C9.02197 1.25 9.88623 1.67115 10.3782 2.37696C10.4355 2.45923 10.5376 2.49976 10.635 2.47852C11.6743 2.25879 12.7461 2.75782 13.3027 3.72217C13.4238 3.9314 13.5156 4.15869 13.5762 4.39771C13.6001 4.49121 13.6755 4.56275 13.7703 4.58154C14.3779 4.70117 14.8359 5.4419 14.8359 6.30469C14.8359 6.6167 14.7747 6.92481 14.6587 7.1958C14.6223 7.28125 14.6362 7.37988 14.6948 7.4519C15.0527 7.89185 15.25 8.45264 15.25 9.03125C15.25 9.80811 14.8921 10.5437 14.293 10.999Z" fill="black"></path><path d="M6.32031 12.7578H6.14844C5.16186 12.7578 4.35937 11.9553 4.35937 10.9688C4.35937 10.8306 4.24756 10.7188 4.10937 10.7188C3.56665 10.7188 3.125 10.2771 3.125 9.73438C3.125 9.59619 3.01318 9.48438 2.875 9.48438C2.73682 9.48438 2.625 9.59619 2.625 9.73438C2.625 10.4717 3.16528 11.0852 3.87085 11.1997C3.98706 12.3538 4.96411 13.2578 6.14844 13.2578H6.32031C6.45849 13.2578 6.57031 13.146 6.57031 13.0078C6.57031 12.8696 6.45849 12.7578 6.32031 12.7578Z" fill="black"></path><path d="M10.7766 5.02075C10.6528 3.82251 9.63696 2.88477 8.40649 2.88477H8.12524C7.98706 2.88477 7.87524 2.99658 7.87524 3.13477C7.87524 3.27295 7.98706 3.38477 8.12524 3.38477H8.40649C9.44458 3.38477 10.2893 4.22949 10.2893 5.26758C10.2893 5.40576 10.4011 5.51758 10.5393 5.51758C11.5004 5.45915 12.332 6.22136 12.3284 7.18945C12.3284 7.32764 12.4402 7.43945 12.5784 7.43945C12.7166 7.43945 12.8284 7.32764 12.8284 7.18945C12.8284 6.03223 11.9187 5.08325 10.7766 5.02075Z" fill="black"></path><path d="M8.6875 7.69531H8.47656C8.33838 7.69531 8.22656 7.80713 8.22656 7.94531C8.22656 8.0835 8.33838 8.19531 8.47656 8.19531H8.6875C9.64819 8.19531 10.4297 8.97681 10.4297 9.9375C10.4297 10.0757 10.5415 10.1875 10.6797 10.1875C10.8179 10.1875 10.9297 10.0757 10.9297 9.9375C10.9297 8.70117 9.92383 7.69531 8.6875 7.69531Z" fill="black"></path></g><defs><clipPath id="clip0_2212_8211"><rect width="16" height="16" fill="white" transform="translate(0 0.5)"></rect></clipPath></defs></svg> 