<?xml version="1.0" encoding="UTF-8"?> <svg xmlns="http://www.w3.org/2000/svg" width="19" height="11" viewBox="0 0 19 11" fill="none"><path d="M13.9296 4.13716C13.843 4.12976 13.7658 4.19623 13.7592 4.28388C13.7527 4.37148 13.8184 4.44779 13.906 4.45431C13.906 4.45431 14.4547 4.49516 14.4587 4.49516C14.5411 4.49516 14.6108 4.43154 14.6171 4.34798C14.6236 4.26038 14.5579 4.18407 14.4703 4.17755L13.9296 4.13716Z" fill="black"></path><path d="M8.64293 3.74256L7.58555 3.66361C7.49837 3.65647 7.42175 3.72264 7.41512 3.81034C7.40859 3.89793 7.47434 3.97424 7.56194 3.98077C7.56194 3.98077 8.62729 4.06018 8.63132 4.06018C8.71374 4.06018 8.78343 3.99656 8.78974 3.913C8.79627 3.8254 8.73052 3.74909 8.64293 3.74256Z" fill="black"></path><path d="M9.70024 3.82149C9.61336 3.81497 9.53633 3.88057 9.5298 3.96821C9.52328 4.05581 9.58903 4.13212 9.67663 4.13865C9.67663 4.13865 10.742 4.21801 10.746 4.21801C10.8284 4.21801 10.8982 4.15438 10.9044 4.07083C10.9109 3.98323 10.8452 3.90692 10.7576 3.9004L9.70024 3.82149Z" fill="black"></path><path d="M5.47093 3.50572C5.38353 3.49904 5.30702 3.56479 5.30049 3.65244C5.29397 3.74003 5.35972 3.81634 5.44732 3.82287C5.44732 3.82287 6.51266 3.90229 6.5167 3.90229C6.59912 3.90229 6.6688 3.83866 6.67512 3.7551C6.68164 3.6675 6.61589 3.5912 6.5283 3.58467L5.47093 3.50572Z" fill="black"></path><path d="M11.815 3.97939C11.7282 3.9724 11.6512 4.03841 11.6445 4.12611C11.638 4.21371 11.7038 4.29002 11.7914 4.29654C11.7914 4.29654 12.8566 4.37596 12.8607 4.37596C12.9431 4.37596 13.0128 4.31233 13.0191 4.22878C13.0256 4.14118 12.9598 4.06487 12.8723 4.05834L11.815 3.97939Z" fill="black"></path><path d="M18.5085 10.4641H0.975952C0.79227 10.4641 0.642855 10.3147 0.642855 10.131V7.19317C0.642855 7.00949 0.792265 6.86003 0.975952 6.86003H15.2455C15.2502 6.86003 16.7768 6.78328 17.3747 6.72578C17.7602 6.68871 18.1242 6.65372 18.5165 6.63379C18.6042 6.62933 18.6717 6.55463 18.6673 6.46688C18.6628 6.37923 18.5907 6.31141 18.5004 6.31612C18.1009 6.33642 17.7333 6.37172 17.3442 6.40916C16.5085 6.48945 15.5612 6.58052 14.081 6.5246C12.9406 6.48153 11.7718 6.05266 10.6071 5.24989C9.70985 4.63169 8.63239 4.36305 7.72515 4.53074C7.72028 4.53162 6.49227 4.87756 6.49227 4.87756C5.7538 5.01232 4.97713 4.90401 4.30432 4.572L3.81912 4.33236C3.70483 4.27598 3.58661 4.23341 3.46651 4.20302C3.29636 3.94876 3.18337 3.56791 3.18337 3.23325C3.18337 2.23314 3.49658 1.041 4.99929 1.04064C5.00923 1.04007 5.99153 0.97686 6.79098 1.10763C8.25134 1.3464 8.89693 1.4838 8.89693 2.23955C8.89693 2.53009 8.80861 2.84455 8.72225 3.11381C8.69544 3.19743 8.74151 3.28699 8.82518 3.31381C8.90915 3.34063 8.9985 3.2946 9.02522 3.21094C9.05688 3.11216 9.08851 3.00719 9.11688 2.89901C9.29298 2.91151 9.90854 2.95338 9.94716 2.95338C10.6372 2.95338 11.2178 2.51674 12.3168 1.69037L12.4351 1.60153C13.7047 0.647491 14.4847 0.487985 15.2659 0.542553C15.2659 0.542553 16.3497 0.617775 18.4849 0.936944C18.5713 0.949833 18.6527 0.890041 18.6657 0.803169C18.6788 0.716297 18.6188 0.635379 18.5319 0.622385C16.3843 0.301353 15.2881 0.225196 15.2881 0.225196C14.2668 0.154426 13.4133 0.468728 12.2439 1.34723L12.1257 1.43612C10.9941 2.28709 10.4783 2.67651 9.85231 2.63193C9.64663 2.61768 9.3653 2.59779 9.18446 2.58496C9.20313 2.47029 9.21501 2.35438 9.21501 2.23956C9.21501 1.18167 8.21976 1.01895 6.84234 0.793692C6.00592 0.656914 5.01989 0.720539 4.98873 0.722923C3.61938 0.722923 2.86528 1.61442 2.86528 3.23325C2.86528 3.54063 2.9442 3.87227 3.07405 4.14936C2.73862 4.14222 2.4033 4.23156 2.10642 4.41617C1.58488 4.74041 1.27353 5.30063 1.27353 5.91474V6.54194H0.975947C0.616862 6.54194 0.324768 6.83409 0.324768 7.19317V10.131C0.324768 10.4901 0.616862 10.7822 0.975947 10.7822H18.5084C18.5962 10.7822 18.6675 10.711 18.6675 10.6231C18.6675 10.5353 18.5963 10.4641 18.5085 10.4641ZM12.4491 6.54195H9.93503C10.1846 6.06731 10.1172 5.5909 9.96715 5.2365C10.1241 5.31776 10.278 5.40941 10.4266 5.5118C11.0995 5.97564 11.7756 6.31935 12.4491 6.54195ZM1.59161 5.91474C1.59161 5.41132 1.84685 4.95211 2.27437 4.68632C2.702 4.42047 3.22675 4.39489 3.6783 4.61756L4.1635 4.85721C4.89958 5.22049 5.74966 5.33821 6.55719 5.18906C6.56206 5.18818 7.79007 4.84225 7.79007 4.84225C8.31254 4.74704 8.89976 4.81315 9.47035 5.01908C9.47154 5.02058 10.1039 5.7841 9.56328 6.54194H1.59161V5.91474Z" fill="black"></path></svg> 