<?xml version="1.0" encoding="UTF-8"?> <svg xmlns="http://www.w3.org/2000/svg" width="19" height="13" viewBox="0 0 19 13" fill="none"><path d="M10.4191 5.6936C10.3325 5.6936 10.2623 5.7638 10.2623 5.85042C10.2623 5.93705 10.3325 6.00724 10.4191 6.00724H11.4645C11.5511 6.00724 11.6214 5.93705 11.6214 5.85042C11.6214 5.7638 11.5511 5.6936 11.4645 5.6936H10.4191Z" fill="black"></path><path d="M14.6009 5.6936C14.5143 5.6936 14.4441 5.7638 14.4441 5.85042C14.4441 5.93705 14.5143 6.00724 14.6009 6.00724H15.6464C15.7329 6.00724 15.8032 5.93705 15.8032 5.85042C15.8032 5.7638 15.7329 5.6936 15.6464 5.6936H14.6009Z" fill="black"></path><path d="M8.3282 5.6936C8.24163 5.6936 8.17139 5.7638 8.17139 5.85042C8.17139 5.93705 8.24163 6.00724 8.3282 6.00724H9.37365C9.46023 6.00724 9.53047 5.93705 9.53047 5.85042C9.53047 5.7638 9.46023 5.6936 9.37365 5.6936H8.3282Z" fill="black"></path><path d="M13.7123 5.85042C13.7123 5.7638 13.6421 5.6936 13.5555 5.6936H12.51C12.4235 5.6936 12.3532 5.7638 12.3532 5.85042C12.3532 5.93705 12.4235 6.00724 12.51 6.00724H13.5555C13.6421 6.00724 13.7123 5.93705 13.7123 5.85042Z" fill="black"></path><path d="M6.23732 5.6936C6.15075 5.6936 6.08051 5.7638 6.08051 5.85042C6.08051 5.93705 6.15075 6.00724 6.23732 6.00724H7.28277C7.36935 6.00724 7.43959 5.93705 7.43959 5.85042C7.43959 5.7638 7.36935 5.6936 7.28277 5.6936H6.23732Z" fill="black"></path><path d="M16.6918 5.6936C16.6052 5.6936 16.535 5.7638 16.535 5.85042C16.535 5.93705 16.6052 6.00724 16.6918 6.00724H17.7372C17.8238 6.00724 17.8941 5.93705 17.8941 5.85042C17.8941 5.7638 17.8238 5.6936 17.7372 5.6936H16.6918Z" fill="black"></path><path d="M10.3996 7.13663H11.6409C12.0739 7.13663 12.46 7.39534 12.6247 7.79565C12.6247 7.79565 12.8197 8.26997 12.8201 8.2709C12.8958 8.45514 13.188 8.34116 13.1102 8.15166L12.9147 7.67635C12.7014 7.15797 12.2015 6.823 11.6409 6.823H10.3996C10.313 6.823 10.2428 6.89319 10.2428 6.97982C10.2428 7.06644 10.313 7.13663 10.3996 7.13663Z" fill="black"></path><path d="M12.9148 4.03999L13.1102 3.56474C13.1431 3.48465 13.1049 3.39302 13.0248 3.36009C12.9445 3.32712 12.853 3.3655 12.8201 3.44549L12.6248 3.92069C12.46 4.32106 12.0739 4.57971 11.6409 4.57971H10.3996C10.313 4.57971 10.2428 4.64991 10.2428 4.73653C10.2428 4.82316 10.313 4.89335 10.3996 4.89335H11.6409C12.2015 4.89335 12.7015 4.55843 12.9148 4.03999Z" fill="black"></path><path d="M18.3836 12.0546H1.02916C0.884999 12.0546 0.767798 11.9373 0.767798 11.7932V9.29729C0.767798 9.15318 0.885004 9.03593 1.02916 9.03593H4.92631C6.05027 9.03593 6.90909 9.34518 7.59925 9.59368C7.81721 9.67215 8.03525 9.7532 8.25925 9.81309C8.71821 9.9358 9.21816 9.87852 9.68049 9.80172C10.1039 9.73138 10.5179 9.61675 10.9265 9.48683C11.0372 9.45166 11.1475 9.4155 11.2578 9.37933C11.8197 9.19505 12.3051 9.03593 12.7736 9.03593H15.5263C16.8128 9.03593 17.706 9.03925 18.3732 9.08386C18.4562 9.08979 18.5343 9.02434 18.5401 8.93787C18.5458 8.85145 18.4805 8.77671 18.394 8.77094C17.7172 8.72566 16.8191 8.7223 15.5263 8.7223H12.7736C12.255 8.7223 11.7232 8.89668 11.1601 9.08131C10.5098 9.29454 9.77841 9.53406 8.90616 9.56569V8.29488C8.90616 7.85745 8.70983 7.45045 8.36751 7.17817C8.02509 6.90588 7.58455 6.80623 7.1582 6.9047L5.60504 7.26341C5.03739 7.39455 4.4384 7.3899 3.8728 7.25009L2.59907 6.93518C2.5432 6.92137 2.48707 6.91136 2.43087 6.90433C2.22571 6.59066 2.11636 6.22825 2.11636 5.85053C2.11636 4.78639 2.98213 3.92063 4.04626 3.92063H5.58993C6.14709 3.92063 6.66609 4.15802 7.02939 4.56638H6.4363C6.34972 4.56638 6.27948 4.63657 6.27948 4.7232C6.27948 4.80982 6.34972 4.88002 6.4363 4.88002H7.44121C7.73515 4.88002 8.00937 4.73504 8.17486 4.49226L8.41907 4.13411C8.68442 3.74493 8.82061 3.29035 8.81295 2.81959L8.81061 2.6713C8.8003 2.19207 8.97753 1.77195 9.32333 1.45627C9.74763 1.06887 10.3909 0.881784 11.039 0.95468C12.8754 1.21588 15.9363 2.11643 17.1178 2.4759C17.039 2.50136 16.9616 2.52665 16.8868 2.55124C16.3709 2.72082 15.9635 2.85477 15.5263 2.85477C15.0471 2.85477 14.5925 2.72827 14.0661 2.58186C13.3472 2.38181 12.4524 2.13291 11.1052 2.08798C11.0232 2.08604 10.9462 2.15297 10.9433 2.23949C10.9404 2.32602 11.0082 2.39856 11.0948 2.40141C12.4044 2.44511 13.2792 2.68845 13.9821 2.88401C14.5306 3.03659 15.0043 3.1684 15.5263 3.1684C16.0137 3.1684 16.4636 3.02046 16.9847 2.84915C17.3887 2.71638 17.8465 2.56588 18.4143 2.45221C18.4993 2.43521 18.5544 2.35261 18.5374 2.26767C18.5203 2.18278 18.4375 2.12744 18.3529 2.1447C18.0993 2.19545 17.869 2.25315 17.6547 2.31308C17.1982 2.17029 13.282 0.956885 11.0786 0.643596C10.3371 0.560389 9.60195 0.777188 9.11179 1.22467C8.69729 1.60313 8.48472 2.10569 8.49698 2.67717L8.49933 2.82465C8.50596 3.23032 8.38866 3.62206 8.15996 3.95744C8.15996 3.95744 7.91577 4.31561 7.91575 4.31564C7.83235 4.43797 7.70226 4.52473 7.55723 4.55458C7.515 4.56327 7.47156 4.56638 7.4285 4.56638C7.00793 3.96444 6.32762 3.607 5.58993 3.607H4.04626C2.80918 3.607 1.80273 4.61345 1.80273 5.85053C1.80273 6.22332 1.89456 6.58336 2.06805 6.90701C1.81958 6.93992 1.58128 7.03693 1.377 7.19685C1.02926 7.46914 0.829768 7.87864 0.829768 8.3203V8.75868C0.610875 8.84002 0.454163 9.05042 0.454163 9.29729V11.7932C0.454163 12.1103 0.712158 12.3682 1.02916 12.3682H18.3836C18.4702 12.3682 18.5404 12.298 18.5404 12.2114C18.5404 12.1248 18.4702 12.0546 18.3836 12.0546ZM1.57026 7.44382C1.84163 7.23141 2.18947 7.15698 2.52372 7.23963L3.79746 7.55454C4.41074 7.70625 5.06006 7.71125 5.67569 7.56898L7.22886 7.21028C7.56097 7.1334 7.90513 7.21119 8.17221 7.42365C8.4394 7.63606 8.59254 7.95362 8.59254 8.29488V9.56091C8.35568 9.53216 8.06275 9.42727 7.70544 9.29857C7.03008 9.05538 6.105 8.7223 4.92632 8.7223H1.1434V8.3203C1.1434 7.97568 1.29899 7.65622 1.57026 7.44382Z" fill="black"></path></svg> 