<?xml version="1.0" encoding="UTF-8"?> <svg xmlns="http://www.w3.org/2000/svg" width="43" height="39" viewBox="0 0 43 39" fill="none"><path d="M35.3541 38.9844C35.1549 38.987 34.9576 38.9458 34.7761 38.8638C34.0064 38.4709 33.2916 37.9786 32.6501 37.3995C31.9383 36.8041 31.3088 35.8648 30.3651 35.627C30.1733 35.5682 29.9724 35.5453 29.7723 35.5594C29.7059 36.0498 29.5924 36.5171 29.0776 36.7144C28.2533 37.03 27.765 36.2678 27.5304 35.9016C27.4769 35.818 27.4015 35.7005 27.3482 35.6349C27.3433 35.6346 27.3382 35.6346 27.3331 35.6346C26.8415 35.7131 26.3888 35.9491 26.0429 36.3072C26.0032 36.3613 25.9024 36.5113 25.6545 36.8988C25.5974 37.0174 25.5086 37.1179 25.398 37.1893C25.2874 37.2607 25.1592 37.3001 25.0276 37.3033H23.6707C23.574 37.302 23.4787 37.28 23.3912 37.239C23.3037 37.1979 23.2259 37.1386 23.1631 37.0651C23.1003 36.9916 23.0539 36.9056 23.027 36.8128C23.0001 36.7199 22.9932 36.6224 23.007 36.5267C23.0491 36.2586 23.0964 35.9302 23.1103 35.796C23.0794 35.603 23.0362 35.4122 22.9811 35.2247C22.9361 35.194 22.8856 35.1723 22.8324 35.1608C22.8225 35.1593 22.7669 35.2572 22.7594 35.2677C22.3325 35.8724 21.4757 36.3826 20.6063 36.0736C20.2702 35.9356 19.9734 35.7168 19.7423 35.4366C19.5111 35.1563 19.3527 34.8233 19.2812 34.4671C19.1943 34.0563 18.8121 32.8915 18.0992 32.4581C17.7557 32.2875 17.36 32.2546 16.9931 32.3662C16.8633 32.3872 15.7011 32.55 15.0699 31.7999C14.8904 31.5639 14.7725 31.2869 14.7269 30.9939C14.6813 30.701 14.7095 30.4013 14.8089 30.1219C14.7161 29.9976 14.537 29.7761 14.2001 29.406C14.1091 29.2802 13.9731 29.1943 13.8204 29.1661C13.6678 29.138 13.5101 29.1697 13.3802 29.2548C13.1966 29.3894 13.5774 29.8495 13.6638 29.9499C13.744 30.0486 13.795 30.1677 13.811 30.2938C13.827 30.4199 13.8075 30.5479 13.7545 30.6635C13.7015 30.779 13.6172 30.8774 13.5112 30.9475C13.4052 31.0177 13.2817 31.0568 13.1546 31.0603C12.8533 31.0813 12.5625 31.1799 12.3105 31.3465C12.0585 31.513 11.8538 31.7419 11.7164 32.0109C11.6486 32.1317 11.5456 32.229 11.421 32.2897C11.2964 32.3504 11.1563 32.3716 11.0194 32.3505C10.8824 32.3293 10.7552 32.2669 10.6547 32.1715C10.5542 32.0761 10.4853 31.9523 10.4571 31.8166C10.3764 31.3629 9.98006 30.0905 9.13038 29.6787C9.02598 29.624 8.93746 29.5434 8.87339 29.4445C8.80931 29.3456 8.77185 29.2318 8.76464 29.1142C8.75743 28.9966 8.78071 28.8791 8.83222 28.7731C8.88373 28.6671 8.96173 28.5763 9.05867 28.5093C9.26039 28.3769 9.44175 28.2159 9.59703 28.0312C9.38542 27.937 8.81392 27.7746 7.3878 27.7746C7.20959 27.7746 7.0387 27.7038 6.9127 27.5778C6.7867 27.4518 6.71592 27.2809 6.71592 27.1026C6.7128 26.8654 6.61553 26.4822 6.46446 26.4064C6.33372 26.3411 5.89361 26.3903 5.06884 26.9891C4.95407 27.0725 4.81586 27.1174 4.674 27.1174H3.31708C3.18963 27.1174 3.06481 27.0811 2.95719 27.0128C2.84958 26.9446 2.7636 26.8471 2.70929 26.7318C2.65498 26.6165 2.63459 26.4881 2.65048 26.3616C2.66638 26.2352 2.71791 26.1159 2.79907 26.0176C3.33448 25.3663 4.11611 24.0578 3.93223 23.3211C3.89565 23.1751 3.80067 22.9612 3.39878 22.7945C3.27612 22.7435 3.1713 22.6574 3.09755 22.5469C3.02381 22.4364 2.98444 22.3066 2.98442 22.1737C2.98278 21.9063 2.89223 21.0545 2.51035 20.6848C2.40129 20.579 2.33124 20.4395 2.31161 20.2889C2.29199 20.1383 2.32393 19.9854 2.40225 19.8553C2.40947 19.8431 3.24786 18.4017 2.82432 16.9161C2.55366 15.9668 1.81617 15.1725 0.631841 14.555C0.539162 14.5042 0.459535 14.4327 0.399237 14.3459C0.338939 14.2592 0.299621 14.1596 0.284382 14.0551C0.269143 13.9505 0.278401 13.8439 0.311425 13.7435C0.344449 13.6432 0.400336 13.5518 0.474679 13.4768C1.07932 12.8891 2.75921 10.9257 2.55383 9.65327C2.51026 9.44514 2.41725 9.25054 2.28267 9.08591C2.14808 8.92127 1.97587 8.79143 1.78056 8.70733C1.46166 8.69351 1.15081 8.60288 0.874445 8.44316C0.598079 8.28343 0.364369 8.05934 0.193183 7.78992C-0.184263 7.09695 -0.00809019 6.17561 0.717115 5.05149C0.770983 4.96804 0.84268 4.89757 0.927046 4.84515C1.01141 4.79273 1.10635 4.75966 1.20502 4.74833C1.3037 4.73699 1.40366 4.74767 1.49772 4.77959C1.59177 4.81152 1.67758 4.8639 1.74897 4.93295C2.11566 5.28662 2.53555 4.99835 2.78577 4.6758C2.84413 4.60052 2.91781 4.53848 3.00194 4.4938C3.08607 4.44911 3.17872 4.4228 3.27378 4.4166L8.25867 4.09505C8.89998 3.7796 9.45643 3.31516 9.88147 2.7406C10.0932 2.43157 10.3804 2.18175 10.7157 2.01483C11.0511 1.8479 11.4235 1.7694 11.7977 1.78677C11.8467 1.78682 11.8956 1.79221 11.9434 1.80285C12.091 1.75888 12.5945 1.55447 13.7504 0.621314C13.8177 0.567058 13.8949 0.526284 13.9776 0.501223C14.6037 0.311583 17.7929 -0.571049 19.1019 0.651169C19.4488 0.975295 19.8126 1.57758 19.5762 2.60868C19.5013 2.9372 20.2162 3.2563 20.4488 3.30724C21.2009 3.47193 21.9365 2.98015 22.6025 2.7058C23.225 2.44933 23.8992 2.54108 24.545 2.63755C27.3211 3.03655 30.2772 3.43356 33.1596 3.4096C34.1689 3.4012 35.1604 3.1899 36.1631 3.10347C36.3726 3.08542 38.2187 2.96927 39.3036 4.17213C39.9611 4.90054 40.1737 5.91376 39.9355 7.1829C39.8326 7.8998 39.9179 8.63116 40.183 9.30513C40.457 10.0917 41.0133 10.7437 41.2837 11.535C41.5911 12.4347 41.9008 13.7055 41.6303 14.6498C41.5544 14.9366 41.4121 15.2016 41.215 15.4234C41.0178 15.6452 40.7713 15.8175 40.4953 15.9264C40.7002 16.6745 40.623 17.7734 39.3474 18.762C39.2206 18.8612 39.1147 18.9847 39.0359 19.1251C38.9572 19.2656 38.9071 19.4203 38.8886 19.5803C38.82 20.0981 38.9801 21.0076 40.1323 22.4031C40.2023 22.4878 40.2505 22.5885 40.2725 22.6962C40.2946 22.8039 40.2899 22.9154 40.2588 23.0209C40.1922 23.2545 40.0772 23.9613 40.3497 24.3898C40.5904 24.7684 41.0172 24.6817 41.3449 24.901C41.7332 25.1609 43 26.0878 43 27.1026C43.0147 27.4343 42.9227 27.762 42.7374 28.0375C42.5522 28.3131 42.2835 28.522 41.9708 28.6336C41.9368 28.7763 41.882 28.9133 41.8083 29.0401C41.6395 29.2943 41.4206 29.5114 41.165 29.678C40.9094 29.8447 40.6225 29.9574 40.3218 30.0094L36.277 34.8313C36.5186 35.7695 36.6613 36.7305 36.7025 37.6984C36.6963 37.9178 36.6355 38.1322 36.5256 38.3222C36.4157 38.5123 36.2602 38.6719 36.0731 38.7867C35.8558 38.9167 35.6072 38.985 35.3541 38.9844ZM29.8719 34.2092C31.1251 34.2092 32.0623 34.9742 32.9092 35.8055C33.6115 36.5502 34.4337 37.1718 35.3416 37.6446C35.379 36.9126 35.0292 35.3609 34.8925 34.8264C34.8661 34.7231 34.8647 34.6149 34.8884 34.5109C34.9121 34.4069 34.9603 34.31 35.0288 34.2283L39.4388 28.9709C39.5378 28.8528 39.6744 28.7723 39.8257 28.7429C40.3257 28.6461 40.5765 28.4856 40.6448 28.3678C40.6511 28.3567 40.6751 28.3071 40.6751 28.3071C40.6403 28.2059 40.6302 28.0979 40.6455 27.992C40.6609 27.8861 40.7013 27.7854 40.7635 27.6982C40.8256 27.6111 40.9077 27.5401 41.0028 27.491C41.0979 27.442 41.2034 27.4164 41.3104 27.4163C41.6562 27.4045 41.6562 27.2007 41.6562 27.1026C41.6359 26.9163 41.1808 26.4369 40.7051 26.093C40.4014 26.0394 40.112 25.9237 39.8549 25.7534C39.5977 25.583 39.3784 25.3616 39.2106 25.1028C38.8558 24.4631 38.7418 23.7174 38.8892 23.0009C37.8429 21.6556 37.3975 20.4262 37.5651 19.3431C37.6103 19.0168 37.7196 18.7026 37.8867 18.4186C38.0537 18.1346 38.2752 17.8865 38.5385 17.6884C39.5769 16.8751 39.2134 16.1946 39.0766 16.0049C39.0192 15.9233 38.9802 15.8302 38.9623 15.732C38.9444 15.6339 38.948 15.533 38.973 15.4364C38.9979 15.3398 39.0435 15.2498 39.1067 15.1725C39.1698 15.0953 39.249 15.0327 39.3387 14.989C40.253 14.5776 40.2745 14.5025 40.3385 14.2797C40.4707 13.818 40.3487 12.9544 40.0121 11.9694C39.7438 11.1845 39.1878 10.5336 38.914 9.74745C38.5702 8.85219 38.4669 7.88244 38.6146 6.93486C38.7713 6.10047 38.6678 5.47411 38.3071 5.07348C37.7595 4.46549 36.6577 4.41036 36.278 4.44252C35.2388 4.53418 34.2128 4.74885 33.1664 4.75357C30.1958 4.76701 27.1797 4.37363 24.354 3.96774C23.808 3.84846 23.2384 3.90106 22.7234 4.11834C22.0093 4.43563 21.1197 4.83002 20.1613 4.62035C19.1687 4.40323 18.0051 3.44827 18.2665 2.30847C18.3795 1.81565 18.2332 1.6785 18.185 1.63354C17.653 1.13645 15.7146 1.40222 14.4891 1.75166C13.1191 2.84428 12.236 3.28526 11.6717 3.13565C11.5329 3.1433 11.3977 3.18258 11.2765 3.25048C11.1552 3.31838 11.051 3.4131 10.972 3.52741C9.85933 4.96421 8.73634 5.35795 8.612 5.39831C8.55908 5.41538 8.50426 5.42585 8.44878 5.42948L3.64269 5.73955C3.29737 6.13772 2.81222 6.38793 2.28759 6.43841C2.03189 6.45535 1.77544 6.41927 1.53434 6.33243C1.33241 6.75964 1.31076 7.03 1.37264 7.14556C1.52834 7.43733 2.00091 7.31775 2.25299 7.43982C3.42388 8.0068 3.78443 8.84119 3.88088 9.44131C4.14088 11.0612 2.8263 12.8635 2.00497 13.8078C3.02207 14.4383 3.77441 15.418 4.12104 16.5633C4.41478 17.7537 4.29139 19.0087 3.77148 20.1191C4.06851 20.616 4.24988 21.1735 4.30214 21.7501C4.5331 21.8855 4.73472 22.0656 4.89519 22.2798C5.05566 22.4941 5.17174 22.7382 5.23665 22.9979C5.45531 23.8789 5.08131 24.8754 4.66269 25.6402C5.63706 25.0208 6.42903 24.8806 7.07549 25.2094C7.30412 25.3383 7.50236 25.5149 7.6568 25.7271C7.81124 25.9394 7.91827 26.1823 7.97063 26.4395C9.82719 26.5002 10.7312 26.869 10.9584 27.6401C11.0123 27.8919 10.9991 28.1534 10.9201 28.3985C10.8412 28.6435 10.6992 28.8636 10.5084 29.0365C10.879 29.4173 11.1768 29.8626 11.387 30.3506C11.6075 30.1831 11.8496 30.0461 12.1068 29.9434C12.009 29.693 11.9718 29.4229 11.9982 29.1553C12.0211 28.9588 12.0853 28.7695 12.1867 28.5997C12.2882 28.4299 12.4245 28.2835 12.5866 28.1703C12.9797 27.8875 13.4649 27.763 13.9457 27.8218C14.4264 27.8805 14.8674 28.1181 15.1808 28.4873C16.127 29.5264 16.3086 29.8584 16.1649 30.2778C16.0228 30.6902 16.0589 30.8874 16.0976 30.9343C16.2965 31.0462 16.5283 31.0847 16.7526 31.0429C17.1028 30.9419 17.4704 30.9162 17.8312 30.9674C18.1921 31.0187 18.538 31.1457 18.8462 31.3402C20.2123 32.212 20.5986 34.201 20.6019 34.2207C20.6286 34.3463 20.6832 34.4642 20.7618 34.5657C20.8403 34.6673 20.9408 34.7498 21.0557 34.8071C21.3151 34.8976 21.5761 34.6215 21.7047 34.4294C21.8291 34.1952 22.0278 34.009 22.2695 33.8999C22.5113 33.7909 22.7824 33.7652 23.0403 33.827C24.1718 34.0852 24.3025 34.8244 24.4075 35.4183C24.4462 35.5959 24.4586 35.7782 24.4443 35.9594H24.6608C24.778 35.7531 24.9151 35.5589 25.0701 35.3793C25.5625 34.8871 26.6706 34.1104 27.6999 34.328C27.8761 34.3774 28.0409 34.461 28.1848 34.5742C28.3287 34.6874 28.4488 34.8278 28.5383 34.9875C28.6335 34.7305 28.8208 34.518 29.0639 34.3913C29.3141 34.2651 29.5917 34.2026 29.8719 34.2092Z" fill="black"></path></svg> 