<?xml version="1.0" encoding="UTF-8"?> <svg xmlns="http://www.w3.org/2000/svg" width="34" height="34" viewBox="0 0 34 34" fill="none"><path d="M33.4754 15.349V5.32524H33.4741C33.5679 4.4314 33.3843 3.50093 32.8844 2.68362C32.1446 1.47385 30.873 0.751036 29.4821 0.751036C28.7276 0.751036 27.9892 0.970343 27.3473 1.3856C26.3356 2.0394 25.7099 3.08652 25.529 4.21486H11.8552V2.4822H10.1065L7.0994 0.695801L4.01469 2.53041L4.35774 3.14154L7.0994 1.51105L9.671 3.03945V6.09498L7.0994 7.62338L4.35767 5.99289L4.01462 6.60395L7.09934 8.43799L10.1065 6.6523H11.8551V4.92106H25.4753C25.4753 5.06036 25.4833 5.20043 25.4982 5.34044V14.589H25.6643C25.6347 14.6883 25.5919 14.7801 25.5691 14.8815C25.5584 14.9297 25.553 14.9787 25.5449 15.0277L15.7224 17.33C15.3418 17.2425 14.9465 17.1921 14.5418 17.1866H14.4708C14.0366 17.1866 13.6146 17.2424 13.2072 17.3383H2.59554V30.2383H0.716797V33.7007H26.1534V30.2383H17.411V28.1064C18.2083 27.6098 18.8783 26.9208 19.3621 26.1006L28.1742 19.7041C28.591 19.8517 29.0318 19.9358 29.4874 19.9358C30.2431 19.9358 30.9803 19.7164 31.6235 19.3012C32.5307 18.7136 33.1632 17.7963 33.4017 16.7203C33.5023 16.2636 33.5237 15.8015 33.4754 15.349ZM11.1691 5.94596H10.357V3.18847H11.1691V5.94596ZM26.1843 7.22886C26.9348 8.35109 28.1542 9.02009 29.4889 9.02009C30.2433 9.02009 30.9803 8.80078 31.6235 8.38553C32.0992 8.0779 32.4892 7.68267 32.7894 7.23433V13.4632C32.0389 12.3377 30.8181 11.6658 29.4822 11.6658C28.7277 11.6658 27.9893 11.8851 27.3487 12.3004C26.8812 12.6031 26.4898 12.9956 26.1843 13.4495V7.22886H26.1843ZM3.28163 18.0445H11.5242C9.89073 19.068 8.78118 20.9041 8.75566 23.0009C8.71683 26.2454 11.2495 28.9187 14.4027 28.9588H14.4722C15.271 28.9588 16.0321 28.785 16.7249 28.4759V30.2382H3.28163V18.0445ZM25.4673 30.9445V32.9944H1.40289V30.9445H2.59554H2.93859H17.068H17.4111H25.4673ZM14.4722 28.2524V28.6056L14.4107 28.2524C11.6368 28.2166 9.4083 25.8646 9.44182 23.0092C9.47527 20.1882 11.7306 17.8928 14.5327 17.8928H14.534C17.3079 17.9286 19.5377 20.2806 19.5041 23.1361C19.4707 25.9571 17.2127 28.2524 14.4722 28.2524ZM19.9277 24.8259C20.0897 24.2934 20.1837 23.7292 20.1903 23.1443C20.2184 20.784 18.8811 18.7314 16.9367 17.7692L25.4701 15.7683C25.4633 16.5518 25.6697 17.3215 26.0838 18.0002C26.4349 18.5748 26.9066 19.0349 27.452 19.3646L19.9277 24.8259ZM32.7318 16.563C32.5348 17.4554 32.0108 18.2155 31.2577 18.7039C30.7256 19.0474 30.1132 19.2294 29.4875 19.2294C28.3337 19.2294 27.2791 18.6293 26.6654 17.6251C26.1923 16.8498 26.0409 15.9311 26.2378 15.0386C26.4363 14.1447 26.9601 13.3846 27.7133 12.8977C28.2454 12.5542 28.8563 12.3721 29.4822 12.3721C30.6359 12.3721 31.6905 12.9708 32.3043 13.9764C32.5897 14.444 32.7438 14.9662 32.7894 15.5007V15.8014H32.8095C32.8095 16.0553 32.788 16.3105 32.7318 16.563ZM31.2577 7.78895C30.7256 8.13172 30.1132 8.31382 29.4889 8.31382C28.3337 8.31382 27.2791 7.7144 26.6654 6.71023C26.3787 6.24052 26.2312 5.72594 26.1843 5.20796V4.56793C26.2781 3.54296 26.8035 2.57045 27.7133 1.98275C28.2454 1.63792 28.8563 1.45716 29.4822 1.45716C30.6359 1.45716 31.6905 2.05587 32.3043 3.06011C33.2825 4.66036 32.8121 6.78194 31.2577 7.78895Z" fill="#1D1D1B"></path><path d="M29.4816 13.5559C29.0715 13.5559 28.6708 13.676 28.3238 13.9007C27.8307 14.2194 27.4876 14.7174 27.3576 15.3023C27.229 15.8872 27.3281 16.4873 27.639 16.9949C28.0397 17.6529 28.7297 18.0446 29.4855 18.0446C29.8942 18.0446 30.2949 17.926 30.6433 17.6998C31.1365 17.3812 31.4795 16.8832 31.6094 16.2997C31.7381 15.7148 31.639 15.1147 31.3294 14.6084C30.9274 13.949 30.2373 13.5559 29.4816 13.5559ZM30.9394 16.1424C30.8511 16.5424 30.6164 16.8831 30.2774 17.1024C29.5981 17.5425 28.6426 17.3136 28.2192 16.6183C28.0074 16.2721 27.9391 15.8596 28.0275 15.4595C28.116 15.0581 28.3505 14.7174 28.6882 14.4981C28.9267 14.3435 29.2014 14.2622 29.4815 14.2622C29.9988 14.2622 30.4732 14.5326 30.7478 14.9836C30.9609 15.3312 31.028 15.7423 30.9394 16.1424Z" fill="#1D1D1B"></path><path d="M29.4828 2.64209C29.0728 2.64209 28.672 2.76072 28.3224 2.98692C27.3066 3.64498 26.9984 5.03267 27.639 6.07965C28.0397 6.73771 28.7311 7.13082 29.4855 7.13082C29.8955 7.13082 30.2949 7.01083 30.6433 6.78599C31.1364 6.46736 31.4795 5.96939 31.6094 5.38446C31.7381 4.80101 31.6389 4.19953 31.3293 3.69184C30.9274 3.03392 30.2373 2.64209 29.4828 2.64209ZM30.9394 5.22862C30.8511 5.62868 30.6164 5.96939 30.2774 6.1887C29.598 6.62731 28.6439 6.397 28.2192 5.70451C27.781 4.98581 27.9913 4.03539 28.6882 3.58428C28.9267 3.42986 29.2013 3.34843 29.4827 3.34843C30.0001 3.34843 30.4731 3.61743 30.7478 4.06847C30.9609 4.41607 31.028 4.82721 30.9394 5.22862Z" fill="#1D1D1B"></path><path d="M14.4682 19.9539C12.8186 19.9539 11.4598 21.3361 11.4397 23.0356C11.429 23.8674 11.7359 24.6551 12.3 25.2509C12.8669 25.8482 13.6239 26.1807 14.432 26.1903H14.4735C16.1218 26.1903 17.4792 24.8095 17.4994 23.1114C17.5208 21.3912 16.1781 19.9759 14.4682 19.9539ZM14.4735 25.484V25.8372L14.4414 25.484C13.8142 25.4771 13.2286 25.2192 12.7918 24.7571C12.3549 24.2964 12.1177 23.688 12.1257 23.0438C12.1405 21.7291 13.1924 20.6601 14.499 20.6601C15.7921 20.6766 16.8293 21.7719 16.8133 23.1031C16.7986 24.4163 15.7479 25.484 14.4735 25.484Z" fill="#1D1D1B"></path></svg> 