<?xml version="1.0" encoding="UTF-8"?> <svg xmlns="http://www.w3.org/2000/svg" width="36" height="35" viewBox="0 0 36 35" fill="none"><path fill-rule="evenodd" clip-rule="evenodd" d="M29.1199 2.23822H26.6238V3.19238H26.622C26.6221 3.395 26.4942 3.5824 26.2956 3.64422C26.1335 3.69484 25.9682 3.75607 25.8006 3.82747C25.6448 3.89382 25.4974 3.96448 25.3587 4.03914C25.1799 4.15871 24.9379 4.13785 24.781 3.97672L24.1237 3.3017L22.3586 5.1145L23.0159 5.78952L23.0147 5.7907C23.1542 5.9338 23.1928 6.15905 23.0952 6.34697C23.0157 6.49986 22.9406 6.66344 22.8705 6.83711C22.8065 6.99557 22.7509 7.15202 22.7041 7.30573C22.6602 7.52067 22.4745 7.68209 22.2523 7.68209H21.3232V10.2456H22.2523V10.2475C22.4495 10.2474 22.632 10.3788 22.6922 10.5827C22.7415 10.7492 22.8012 10.9189 22.8706 11.091C22.9352 11.251 23.004 11.4025 23.0767 11.5449C23.1932 11.7286 23.1728 11.9771 23.016 12.1383L22.3587 12.8133L24.1238 14.6261L24.781 13.951L24.7822 13.9522C24.9215 13.8089 25.1409 13.7693 25.3238 13.8695C25.4728 13.9513 25.632 14.0284 25.8011 14.1004C25.9554 14.1661 26.1077 14.2232 26.2574 14.2713C26.4666 14.3164 26.6239 14.507 26.6239 14.7353V15.6895H29.1199V14.7353H29.1218C29.1217 14.5327 29.2496 14.3453 29.4482 14.2835C29.6103 14.2329 29.7755 14.1716 29.9431 14.1002C30.0989 14.0339 30.2463 13.9632 30.3851 13.8886C30.564 13.7691 30.8059 13.7899 30.9629 13.951L31.6201 14.6261L33.3851 12.8133L32.7279 12.1383L32.729 12.1371C32.5896 11.994 32.551 11.7687 32.6485 11.5808C32.7282 11.4278 32.8033 11.2643 32.8733 11.0907C32.9373 10.9322 32.993 10.7758 33.0398 10.622C33.0836 10.4071 33.2692 10.2456 33.4916 10.2456H34.4206V7.68209H33.4916V7.68024C33.2943 7.68031 33.1118 7.54895 33.0516 7.34499C33.0023 7.17859 32.9426 7.00886 32.8731 6.83667C32.8085 6.67665 32.7397 6.52525 32.667 6.38282C32.5506 6.19906 32.5708 5.95065 32.7278 5.78952L33.3851 5.1145L31.6201 3.30178L30.9629 3.9768L30.9617 3.97561C30.8224 4.11885 30.6031 4.15849 30.4201 4.05829C30.2711 3.97658 30.1119 3.89946 29.9428 3.82747C29.7885 3.76179 29.6362 3.70464 29.4865 3.65647C29.2772 3.61142 29.12 3.42083 29.12 3.19245V2.2383L29.1199 2.23822ZM26.6156 1.29001H29.1281C29.3802 1.29001 29.6091 1.39554 29.7747 1.56565C29.9404 1.73576 30.0431 1.97081 30.0431 2.22976V2.85253C30.1296 2.88474 30.214 2.91829 30.2961 2.95325C30.3785 2.98835 30.4612 3.02591 30.5441 3.06576L30.973 2.62527C31.1513 2.44218 31.3858 2.35052 31.62 2.35052C31.8541 2.35052 32.0886 2.4421 32.267 2.62527L34.0435 4.44987C34.2219 4.63304 34.3111 4.87388 34.3111 5.11435C34.3111 5.35482 34.2219 5.59566 34.0435 5.77883L33.6147 6.21924C33.6535 6.30422 33.69 6.38898 33.7241 6.47352C33.7582 6.55798 33.7909 6.64474 33.8223 6.73373H34.4286C34.6808 6.73373 34.9096 6.83934 35.0753 7.00945C35.0872 7.0217 35.0983 7.03439 35.1086 7.04752C35.2546 7.21474 35.3438 7.4345 35.3438 7.67348V10.2539C35.3438 10.5106 35.241 10.745 35.0753 10.9161L35.0724 10.9191C34.9059 11.0886 34.6782 11.1937 34.4287 11.1937H33.8224C33.791 11.2825 33.7584 11.3691 33.7243 11.4534C33.6902 11.5381 33.6536 11.623 33.6147 11.7082L34.0435 12.1487C34.2219 12.3318 34.3111 12.5727 34.3111 12.8131C34.3111 13.0536 34.2219 13.2945 34.0435 13.4776L32.267 15.3023C32.0887 15.4855 31.8542 15.577 31.62 15.577C31.3858 15.577 31.1513 15.4855 30.973 15.3023L30.5441 14.8618C30.4613 14.9016 30.3787 14.9391 30.2964 14.9742C30.2142 15.0093 30.1297 15.0429 30.0431 15.0751V15.6979C30.0431 15.9568 29.9403 16.1919 29.7747 16.362C29.609 16.5321 29.3802 16.6377 29.128 16.6377H26.6155C26.3634 16.6377 26.1345 16.5321 25.9689 16.362C25.9575 16.3502 25.9468 16.3379 25.9368 16.3253C25.7902 16.1587 25.7006 15.9384 25.7006 15.6979V15.0752C25.614 15.043 25.5297 15.0094 25.4477 14.9745C25.3652 14.9394 25.2825 14.9018 25.1996 14.8619L24.7708 15.3023C24.5924 15.4855 24.3579 15.577 24.1238 15.577C23.8896 15.577 23.6551 15.4855 23.4768 15.3023L21.7001 13.4776C21.5219 13.2945 21.4326 13.0536 21.4326 12.8131C21.4326 12.5727 21.5218 12.3318 21.7001 12.1487L22.129 11.7082C22.0902 11.6233 22.0537 11.5384 22.0196 11.4539C21.9855 11.3694 21.9527 11.2827 21.9214 11.1938H21.315C21.0646 11.1938 20.836 11.0878 20.6693 10.9171L20.6684 10.9181C20.5028 10.748 20.3999 10.5129 20.3999 10.254V7.67356C20.3999 7.41461 20.5028 7.17956 20.6684 7.00945C20.6803 6.9972 20.6927 6.98585 20.7055 6.97524C20.8683 6.82524 21.0822 6.73373 21.315 6.73373H21.9213C21.9526 6.64489 21.9853 6.55827 22.0193 6.47396C22.0535 6.38928 22.0901 6.30437 22.1289 6.21924L21.7001 5.77883C21.5218 5.59566 21.4325 5.35482 21.4325 5.11435C21.4325 4.87388 21.5217 4.63304 21.7001 4.44987L23.4767 2.62527C23.6551 2.44218 23.8896 2.35052 24.1237 2.35052C24.3579 2.35052 24.5924 2.4421 24.7707 2.62527L25.1995 3.06569C25.2823 3.02583 25.3649 2.98835 25.4472 2.95325C25.5294 2.91822 25.6138 2.8846 25.7005 2.85238V2.22961C25.7005 1.97067 25.8032 1.73561 25.9689 1.56551C26.1345 1.3954 26.3634 1.28978 26.6155 1.28978L26.6156 1.29001ZM29.5072 7.28428C29.9257 7.71408 30.1846 8.30791 30.1846 8.96385C30.1846 9.6198 29.9257 10.2136 29.5072 10.6434C29.0887 11.0732 28.5105 11.3391 27.8718 11.3391C27.2332 11.3391 26.655 11.0732 26.2365 10.6434C25.818 10.2136 25.5591 9.6198 25.5591 8.96385C25.5591 8.30791 25.818 7.71408 26.2365 7.28428C26.655 6.85448 27.2332 6.58863 27.8718 6.58863C28.5105 6.58863 29.0887 6.85448 29.5072 7.28428ZM27.8718 5.64041C28.7653 5.64041 29.5744 6.01247 30.16 6.61386C30.7456 7.21533 31.1078 8.04614 31.1078 8.96385C31.1078 9.88157 30.7456 10.7124 30.16 11.3138C29.5744 11.9153 28.7654 12.2873 27.8718 12.2873C26.9783 12.2873 26.1693 11.9153 25.5837 11.3138C24.9981 10.7124 24.6359 9.88157 24.6359 8.96385C24.6359 8.04614 24.9981 7.21533 25.5837 6.61386C26.1693 6.01247 26.9783 5.64041 27.8718 5.64041ZM11.3397 17.6991V19.7054H12.5298V17.6991H11.3397ZM30.6438 25.6743H5.2316C4.22776 25.6743 3.31483 26.0964 2.65266 26.7764C1.99049 27.4565 1.57952 28.3941 1.57952 29.4251C1.57952 30.456 1.99049 31.3936 2.65266 32.0737C3.31483 32.7538 4.22776 33.1759 5.2316 33.1759H30.6438C31.6477 33.1759 32.5606 32.7537 33.2227 32.0737C33.8848 31.3936 34.2958 30.456 34.2958 29.4251C34.2958 28.3941 33.8848 27.4565 33.2227 26.7764C32.5606 26.0964 31.6476 25.6743 30.6438 25.6743ZM8.17975 24.7261V17.6991H10.4164V20.1795C10.4164 20.4413 10.6231 20.6536 10.8781 20.6536H12.9914C13.2464 20.6536 13.453 20.4413 13.453 20.1795V17.6991H15.6898V24.7261H8.17975ZM5.2316 24.7261H7.25649V17.225C7.25649 16.9631 7.46317 16.7509 7.71812 16.7509H16.1515C16.4065 16.7509 16.6132 16.9631 16.6132 17.225V24.7261H30.6438C31.9025 24.7261 33.0464 25.2546 33.8755 26.106C34.7045 26.9575 35.2191 28.1323 35.2191 29.4251C35.2191 30.7178 34.7045 31.8926 33.8755 32.7441C33.0464 33.5956 31.9025 34.1241 30.6438 34.1241H5.2316C3.97295 34.1241 2.82899 33.5956 1.99988 32.7441C1.17085 31.8927 0.65625 30.7178 0.65625 29.4251C0.65625 28.1323 1.17085 26.9575 1.99988 26.106C2.82892 25.2546 3.97288 24.7261 5.2316 24.7261ZM6.31956 28.2843C6.60378 28.5762 6.77961 28.9795 6.77961 29.4251C6.77961 29.8706 6.60378 30.274 6.31956 30.5659C6.03534 30.8578 5.64258 31.0384 5.20877 31.0384C4.77496 31.0384 4.38219 30.8578 4.09797 30.5659C3.81375 30.274 3.63793 29.8706 3.63793 29.4251C3.63793 28.9795 3.81375 28.5762 4.09797 28.2843C4.38219 27.9923 4.77496 27.8118 5.20877 27.8118C5.64258 27.8118 6.03534 27.9923 6.31956 28.2843ZM5.20877 26.8635C5.89746 26.8635 6.52097 27.1503 6.97234 27.6138C7.42371 28.0773 7.70287 28.7177 7.70287 29.425C7.70287 30.1323 7.42364 30.7727 6.97234 31.2362C6.52097 31.6998 5.89746 31.9865 5.20877 31.9865C4.52008 31.9865 3.89657 31.6997 3.4452 31.2362C2.99383 30.7727 2.71466 30.1323 2.71466 29.425C2.71466 28.7177 2.9939 28.0773 3.4452 27.6138C3.89657 27.1502 4.52015 26.8635 5.20877 26.8635ZM12.684 28.2843C12.9682 28.5762 13.144 28.9795 13.144 29.4251C13.144 29.8706 12.9682 30.274 12.684 30.5659C12.3998 30.8578 12.007 31.0384 11.5732 31.0384C11.1394 31.0384 10.7466 30.8578 10.4624 30.5659C10.1782 30.274 10.0024 29.8706 10.0024 29.4251C10.0024 28.9795 10.1782 28.5762 10.4624 28.2843C10.7466 27.9923 11.1394 27.8118 11.5732 27.8118C12.007 27.8118 12.3998 27.9923 12.684 28.2843ZM11.5732 26.8635C12.2619 26.8635 12.8854 27.1503 13.3368 27.6138C13.7881 28.0773 14.0673 28.7177 14.0673 29.425C14.0673 30.1323 13.7881 30.7727 13.3368 31.2362C12.8854 31.6998 12.2619 31.9865 11.5732 31.9865C10.8845 31.9865 10.261 31.6997 9.80963 31.2362C9.35826 30.7727 9.0791 30.1323 9.0791 29.425C9.0791 28.7177 9.35833 28.0773 9.80963 27.6138C10.2609 27.1502 10.8845 26.8635 11.5732 26.8635ZM19.0484 28.2843C19.3326 28.5762 19.5085 28.9795 19.5085 29.4251C19.5085 29.8706 19.3326 30.274 19.0484 30.5659C18.7642 30.8578 18.3714 31.0384 17.9376 31.0384C17.5038 31.0384 17.1111 30.8578 16.8268 30.5659C16.5426 30.274 16.3668 29.8706 16.3668 29.4251C16.3668 28.9795 16.5426 28.5762 16.8268 28.2843C17.1111 27.9923 17.5038 27.8118 17.9376 27.8118C18.3714 27.8118 18.7642 27.9923 19.0484 28.2843ZM17.9376 26.8635C18.6263 26.8635 19.2498 27.1503 19.7012 27.6138C20.1526 28.0773 20.4317 28.7177 20.4317 29.425C20.4317 30.1323 20.1526 30.7727 19.7012 31.2362C19.2499 31.6998 18.6263 31.9865 17.9376 31.9865C17.2489 31.9865 16.6254 31.6997 16.1741 31.2362C15.7227 30.7727 15.4435 30.1323 15.4435 29.425C15.4435 28.7177 15.7228 28.0773 16.1741 27.6138C16.6254 27.1502 17.2489 26.8635 17.9376 26.8635ZM25.4129 28.2843C25.6972 28.5762 25.873 28.9795 25.873 29.4251C25.873 29.8706 25.6972 30.274 25.4129 30.5659C25.1287 30.8578 24.736 31.0384 24.3021 31.0384C23.8683 31.0384 23.4756 30.8578 23.1913 30.5659C22.9071 30.274 22.7313 29.8706 22.7313 29.4251C22.7313 28.9795 22.9071 28.5762 23.1913 28.2843C23.4756 27.9923 23.8683 27.8118 24.3021 27.8118C24.736 27.8118 25.1287 27.9923 25.4129 28.2843ZM24.3021 26.8635C24.9908 26.8635 25.6143 27.1503 26.0657 27.6138C26.5171 28.0773 26.7962 28.7177 26.7962 29.425C26.7962 30.1323 26.517 30.7727 26.0657 31.2362C25.6143 31.6998 24.9908 31.9865 24.3021 31.9865C23.6134 31.9865 22.9899 31.6997 22.5386 31.2362C22.0872 30.7727 21.808 30.1323 21.808 29.425C21.808 28.7177 22.0873 28.0773 22.5386 27.6138C22.9899 27.1502 23.6134 26.8635 24.3021 26.8635ZM14.189 11.9176V10.9438C14.189 10.8417 14.148 10.7485 14.082 10.6808C14.016 10.613 13.9252 10.5708 13.8259 10.5708H10.0438C9.94448 10.5708 9.85371 10.613 9.78773 10.6808C9.72176 10.7485 9.68071 10.8417 9.68071 10.9438V11.9176H14.189ZM18.7519 2.69252V0.993873H5.11771V2.69252H18.7519ZM9.08632 3.64074V3.89271C9.08632 4.09829 9.16856 4.28555 9.30103 4.42159C9.43349 4.55763 9.61582 4.64209 9.81599 4.64209H14.0537C14.2539 4.64209 14.4362 4.55763 14.5687 4.42159C14.7011 4.28555 14.7834 4.09829 14.7834 3.89271V3.64074H9.08647H9.08632ZM12.3539 5.59024H11.5157V9.62262H12.3539V5.59024ZM15.7065 3.64074H19.2135C19.4684 3.64074 19.6751 3.42847 19.6751 3.16663V0.519763C19.6751 0.25792 19.4684 0.0456543 19.2135 0.0456543H4.65615C4.4012 0.0456543 4.19452 0.25792 4.19452 0.519763V3.16663C4.19452 3.42847 4.4012 3.64074 4.65615 3.64074H8.16313V3.89271C8.16313 4.35999 8.34893 4.78452 8.64832 5.09201C8.94765 5.39942 9.36101 5.59031 9.81606 5.59031H10.5926V9.62269H10.0439C9.68967 9.62269 9.36794 9.7712 9.13503 10.0104C8.90212 10.2496 8.75752 10.58 8.75752 10.9439V11.9177H7.93022V11.9195C7.79053 11.9197 7.65265 11.9849 7.56239 12.1084L3.56299 17.5712C3.43819 17.7352 3.43024 17.9707 3.55764 18.1452L5.42116 20.6906C5.57349 20.8992 5.86176 20.9415 6.0649 20.785C6.26804 20.6285 6.30923 20.3325 6.15682 20.1238L4.50078 17.8619L8.15843 12.8659H15.7115L19.3691 17.8619L17.7131 20.1238C17.5608 20.3325 17.6019 20.6284 17.805 20.785C18.0082 20.9415 18.2964 20.8992 18.4488 20.6906L20.3069 18.1526C20.4317 17.9886 20.4397 17.7531 20.3123 17.5786L16.332 12.1418C16.2505 12.0073 16.1053 11.9177 15.9397 11.9177H15.1124V10.9439C15.1124 10.58 14.9678 10.2496 14.7349 10.0104C14.502 9.7712 14.1803 9.62269 13.826 9.62269H13.2773V5.59031H14.0538C14.5088 5.59031 14.9221 5.3995 15.2215 5.09201C15.5209 4.78452 15.7067 4.36006 15.7067 3.89271V3.64074H15.7065ZM31.7774 28.2843C32.0616 28.5762 32.2374 28.9795 32.2374 29.4251C32.2374 29.8706 32.0616 30.274 31.7774 30.5659C31.4931 30.8578 31.1004 31.0384 30.6666 31.0384C30.2328 31.0384 29.84 30.8578 29.5558 30.5659C29.2716 30.274 29.0957 29.8706 29.0957 29.4251C29.0957 28.9795 29.2716 28.5762 29.5558 28.2843C29.84 27.9923 30.2328 27.8118 30.6666 27.8118C31.1004 27.8118 31.4931 27.9923 31.7774 28.2843ZM30.6666 26.8635C31.3553 26.8635 31.9788 27.1503 32.4301 27.6138C32.8815 28.0773 33.1607 28.7177 33.1607 29.425C33.1607 30.1323 32.8814 30.7727 32.4301 31.2362C31.9788 31.6998 31.3553 31.9865 30.6666 31.9865C29.9779 31.9865 29.3544 31.6997 28.903 31.2362C28.4516 30.7727 28.1725 30.1323 28.1725 29.425C28.1725 28.7177 28.4517 28.0773 28.903 27.6138C29.3544 27.1502 29.9779 26.8635 30.6666 26.8635Z" fill="black"></path></svg> 